<?xml version="1.0" encoding="iso-8859-1"?>
<!-- Generator: Adobe Illustrator 21.0.0, SVG Export Plug-In . SVG Version: 6.00 Build 0)  -->
<svg xmlns="http://www.w3.org/2000/svg" xmlns:xlink="http://www.w3.org/1999/xlink" version="1.1" id="Capa_1" x="0px" y="0px" viewBox="0 0 512 512" style="enable-background:new 0 0 512 512;" xml:space="preserve" width="512" height="512">
<g>
	<path style="fill:#EDF5FF;" d="M512,316c0,24.899-21.099,45-46,45H15c-8.401,0-15-6.601-15-15V75c0-8.401,6.599-15,15-15h451v90   C490.901,150,512,291.099,512,316z"/>
	<path style="fill:#D7E9FF;" d="M512,316c0,24.899-21.099,45-46,45H256V60h210v90C490.901,150,512,291.099,512,316z"/>
	<path style="fill:#FFDA2D;" d="M451,406v91c0,8.399-6.599,15-15,15H15c-8.401,0-15-6.601-15-15v-91c0-8.401,6.599-15,15-15h46   l15,30l15-30h30l15,30l15-30h30l15,30l15-30h30l15,30l15-30h30l15,30l15-30h30l15,30l15-30h45C444.401,391,451,397.599,451,406z"/>
	<path style="fill:#FDBF00;" d="M451,406v91c0,8.399-6.599,15-15,15H256v-91l15-30h30l15,30l15-30h30l15,30l15-30h45   C444.401,391,451,397.599,451,406z"/>
	<path style="fill:#FDBF00;" d="M76,451c8.291,0,15-6.709,15-15v-45H61v45C61,444.291,67.709,451,76,451z"/>
	<path style="fill:#FDBF00;" d="M136,451c8.291,0,15-6.709,15-15v-45h-30v45C121,444.291,127.709,451,136,451z"/>
	<path style="fill:#FDBF00;" d="M196,451c8.291,0,15-6.709,15-15v-45h-30v45C181,444.291,187.709,451,196,451z"/>
	<path style="fill:#FF9100;" d="M271,391v45c0,8.399-6.599,15-15,15s-15-6.601-15-15v-45H271z"/>
	<path style="fill:#FF9100;" d="M316,451c8.291,0,15-6.709,15-15v-45h-30v45C301,444.291,307.709,451,316,451z"/>
	<path style="fill:#FF9100;" d="M376,451c8.291,0,15-6.709,15-15v-45h-30v45C361,444.291,367.709,451,376,451z"/>
	<path style="fill:#979FEF;" d="M346,120H196c-8.401,0-15,6.599-15,15v91c0,8.399,6.599,15,15,15h150c8.401,0,15-6.601,15-15v-91   C361,126.599,354.401,120,346,120z"/>
	<path style="fill:#D7E9FF;" d="M361,286c0,8.399-6.599,15-15,15H196c-8.401,0-15-6.601-15-15c0-8.401,6.599-15,15-15h150   C354.401,271,361,277.599,361,286z"/>
	<path style="fill:#B0D5F7;" d="M451,0c33.137,0,61,26.863,61,60v256c0-24.901-21.099-45-46-45   c-21.006,0-38.595,14.304-43.584,33.727C420.715,311.354,414.74,316,407.898,316H406c-8.401,0-15-6.601-15-15V60   C391,26.863,417.863,0,451,0L451,0z"/>
	<path style="fill:#FF641A;" d="M151,15v196l-45,30l-45-30V15c0-8.401,6.599-15,15-15h60C144.401,0,151,6.599,151,15z"/>
	<path style="fill:#F03800;" d="M151,15v196l-45,30V0h30C144.401,0,151,6.599,151,15z"/>
	<path style="fill:#FDE4E4;" d="M151,211l-30.901,109.799c-1.8,6-7.5,10.201-14.099,10.201s-12.299-4.2-14.099-10.201L61,211H151z"/>
	<path style="fill:#FCCED3;" d="M151,211l-30.901,109.799c-1.8,6-7.5,10.201-14.099,10.201V211H151z"/>
	<path style="fill:#B0D5F7;" d="M361,286c0,8.399-6.599,15-15,15h-90v-30h90C354.401,271,361,277.599,361,286z"/>
	<path style="fill:#737EE6;" d="M361,135v91c0,8.399-6.599,15-15,15h-90V120h90C354.401,120,361,126.599,361,135z"/>
	<path style="fill:#FF9100;" d="M271,391v45c0,8.399-6.599,15-15,15v-60H271z"/>
</g>















</svg>
