<?xml version="1.0" encoding="iso-8859-1"?>
<!-- Generator: Adobe Illustrator 19.0.0, SVG Export Plug-In . SVG Version: 6.00 Build 0)  -->
<svg version="1.1" id="Capa_1" xmlns="http://www.w3.org/2000/svg" xmlns:xlink="http://www.w3.org/1999/xlink" x="0px" y="0px"
	 viewBox="0 0 512.001 512.001" style="enable-background:new 0 0 512.001 512.001;" xml:space="preserve">
<path style="fill:#4BB3A4;" d="M176.802,30.333l-29.488,71.914l-90.91-90.91C95.327-8.583,144.218-2.251,176.802,30.333z"/>
<path style="fill:#60D9CE;" d="M103.565,103.564L212.254,254.68l66.277-66.277l-72.174-72.174
	c3.755-30.554-6.102-62.445-29.557-85.899L103.565,103.564z"/>
<path style="fill:#4BB3A4;" d="M103.565,103.564l129.903,129.903l-45.071,45.071l-72.174-72.174
	c-30.547,3.748-62.438-6.109-85.892-29.564C-2.254,144.215-8.582,95.333,11.337,56.407l69.692,69.692L103.565,103.564z"/>
<path style="fill:#60D9CE;" d="M335.2,481.667l29.488-71.914l90.91,90.91C416.674,520.583,367.784,514.251,335.2,481.667z"/>
<path style="fill:#4BB3A4;" d="M408.437,408.436L299.747,257.32l-66.277,66.277l72.174,72.174
	c-3.755,30.554,6.102,62.445,29.557,85.899L408.437,408.436z"/>
<path style="fill:#60D9CE;" d="M408.437,408.436L278.534,278.533l45.071-45.071l72.174,72.174
	c30.547-3.748,62.438,6.109,85.892,29.564c32.583,32.583,38.912,81.466,18.993,120.392L430.972,385.9L408.437,408.436z"/>
<path style="fill:#FF6126;" d="M486.783,25.217l11.267,11.267c18.59,18.59,18.59,49.011,0,67.601l-27.356,27.356l-73.352-45.067
	L486.783,25.217z"/>
<path style="fill:#FF8151;" d="M475.516,13.951l11.267,11.267l-75.299,75.299l-30.925-59.21l27.356-27.356
	C426.505-4.64,456.926-4.64,475.516,13.951z"/>
<polygon style="fill:#A3FDF6;" points="425.626,86.373 470.694,131.441 425.626,176.508 352.275,131.441 "/>
<polygon style="fill:#DBFFFA;" points="380.559,41.306 425.627,86.374 366.417,145.583 335.492,86.374 "/>
<polygon style="fill:#000E0F;" points="41.361,456.502 51.26,494.686 6.005,506 "/>
<polygon style="fill:#116371;" points="17.319,460.745 34.29,477.715 6.005,506 "/>
<polygon style="fill:#FFA07D;" points="88.192,409.67 126.185,475.948 51.26,494.686 34.29,477.715 "/>
<polygon style="fill:#FFC0A8;" points="36.05,385.813 81.121,430.884 34.29,477.715 17.319,460.745 "/>
<polygon style="fill:#FFD15E;" points="380.559,131.441 425.627,176.509 126.184,475.952 81.116,430.884 209.624,259.95 "/>
<rect x="176.437" y="46.888" transform="matrix(0.7071 0.7071 -0.7071 0.7071 243.8874 -71.5435)" style="fill:#FFEA7C;" width="63.734" height="423.476"/>
<g>
</g>
<g>
</g>
<g>
</g>
<g>
</g>
<g>
</g>
<g>
</g>
<g>
</g>
<g>
</g>
<g>
</g>
<g>
</g>
<g>
</g>
<g>
</g>
<g>
</g>
<g>
</g>
<g>
</g>
</svg>
