<svg height="512pt" viewBox="0 0 512 512" width="512pt" xmlns="http://www.w3.org/2000/svg"><path d="m375 512h-360c-8.285156 0-15-6.714844-15-15v-360c0-8.285156 6.714844-15 15-15h360c8.285156 0 15 6.714844 15 15v360c0 8.285156-6.714844 15-15 15zm0 0" fill="#008fd2"/><path d="m375 122h-181v390h181c8.285156 0 15-6.714844 15-15v-360c0-8.285156-6.714844-15-15-15zm0 0" fill="#005f95"/><path d="m437 450h-360c-8.285156 0-15-6.714844-15-15v-360c0-8.285156 6.714844-15 15-15h360c8.285156 0 15 6.714844 15 15v360c0 8.285156-6.714844 15-15 15zm0 0" fill="#e6f0f0"/><path d="m437 60h-181v390h181c8.285156 0 15-6.714844 15-15v-360c0-8.285156-6.714844-15-15-15zm0 0" fill="#cdd7d7"/><path d="m319.429688 249.996094c-3.835938 0-7.675782-1.464844-10.605469-4.394532l-42.425781-42.425781c-5.859376-5.859375-5.859376-15.355469 0-21.214843l91.960937-91.960938h-21.359375c-8.285156 0-15-6.714844-15-15v-60c0-8.285156 6.714844-15 15-15h160c8.285156 0 15 6.714844 15 15v160c0 8.285156-6.714844 15-15 15h-60c-8.285156 0-15-6.714844-15-15v-21.359375l-91.964844 91.960937c-2.925781 2.929688-6.765625 4.394532-10.605468 4.394532zm0 0" fill="#ff5036"/><path d="m287.609375 224.390625 21.214844 21.210937c2.929687 2.929688 6.769531 4.394532 10.605469 4.394532 3.839843 0 7.679687-1.464844 10.605468-4.394532l91.964844-91.960937v21.359375c0 8.285156 6.714844 15 15 15h60c8.285156 0 15-6.714844 15-15v-160c0-4.140625-1.679688-7.890625-4.394531-10.605469zm0 0" fill="#e62300"/></svg>